/usr/bin/ffmpeg -hide_banner -y -y -r 5 -start_number 0 -start_number_range 1 -i /home/connor/Documents/CPU worm/1. computerworm.org-website/Art/Home/CDs/frame%04d.png -i /home/connor/Documents/CPU worm/1. computerworm.org-website/Art/Home/CDs/KritaTempPalettegen_%06d.png -lavfi [0:v][1:v]paletteuse=dither=sierra2_4a:diff_mode=none -f gif -loop 0 -gifflags +transdiff /home/connor/Documents/CPU worm/1. computerworm.org-website/Art/Home/CDs/1ae95376b66495e.gif
=====================================================
Input #0, image2, from '/home/connor/Documents/CPU worm/1. computerworm.org-website/Art/Home/CDs/frame%04d.png':
  Duration: 00:00:00.44, start: 0.000000, bitrate: N/A
  Stream #0:0: Video: png, rgba(pc, gbr/unknown/unknown), 245x195 [SAR 2834:2834 DAR 49:39], 25 fps, 25 tbr, 25 tbn
Input #1, image2, from '/home/connor/Documents/CPU worm/1. computerworm.org-website/Art/Home/CDs/KritaTempPalettegen_%06d.png':
  Duration: 00:00:00.04, start: 0.000000, bitrate: N/A
  Stream #1:0: Video: png, rgba(pc, gbr/unknown/unknown), 16x16 [SAR 1:1 DAR 1:1], 25 fps, 25 tbr, 25 tbn
Stream mapping:
  Stream #0:0 (png) -> paletteuse
  Stream #1:0 (png) -> paletteuse
  paletteuse:default -> Stream #0:0 (gif)
Press [q] to stop, [?] for help
Output #0, gif, to '/home/connor/Documents/CPU worm/1. computerworm.org-website/Art/Home/CDs/1ae95376b66495e.gif':
  Metadata:
    encoder         : Lavf61.7.100
  Stream #0:0: Video: gif, pal8(pc, gbr/unknown/unknown, progressive), 245x195 [SAR 1:1 DAR 49:39], q=2-31, 200 kb/s, 5 fps, 100 tbn
      Metadata:
        encoder         : Lavc61.19.101 gif
[out#0/gif @ 0x55c671d9a5c0] video:71KiB audio:0KiB subtitle:0KiB other streams:0KiB global headers:0KiB muxing overhead: 0.027545%
frame=   11 fps=0.0 q=-0.0 Lsize=      71KiB time=00:00:02.20 bitrate= 264.1kbits/s speed=35.3x    
